<?xml version="1.0" ?><svg id="Layer_2" style="enable-background:new 0 0 100 100;" version="1.1" viewBox="0 0 100 100" xml:space="preserve" xmlns="http://www.w3.org/2000/svg" xmlns:xlink="http://www.w3.org/1999/xlink"><path d="M90.3,25.6c0-8.8-7.2-16-16-16c-4.1,0-8.1,1.6-11,4.5c-1.7-1.2-3.8-1.8-5.9-1.8c-3.1,0-5.8,1.3-7.7,3.4  c-1.7-0.6-3.6-1-5.5-1h0c-4.1,0-8,1.6-11,4.5c-0.6-0.4-1.3-0.8-1.9-1.1c-0.8-0.4-1.8,0.1-2.2,0.9c-0.2,0.4-0.2,0.9,0,1.3  c0.2,0.4,0.5,0.7,0.9,0.9c0.8,0.3,1.6,0.8,2.2,1.4c0.3,0.3,0.8,0.5,1.2,0.5c0.5,0,0.9-0.2,1.2-0.6c2.4-2.9,5.9-4.5,9.6-4.5  c4.9,0,9.4,2.9,11.5,7.5c0.3,0.6,0.9,1,1.6,1c0.2,0,0.3,0,0.4,0c0,0,0.1,0,0.1,0h0c3.4,0,6.5,2.3,7.5,5.7c0.1,0.4,0.5,0.8,0.9,1  c0.4,0.2,0.9,0.2,1.3,0.1c1.6-0.6,3.2-0.8,4.8-0.8c8.1,0,14.7,6.8,14.7,15.2c0,0.9-0.1,1.8-0.2,2.7c-0.2,0.9,0.5,1.8,1.4,1.9  c0.1,0,0.2,0,0.3,0c0.8,0,1.5-0.6,1.7-1.4c0.2-1,0.3-2.1,0.3-3.2c0-4.4-1.5-8.4-3.9-11.5C88.8,33.3,90.3,29.6,90.3,25.6z M72.2,29.1  c-1.5,0-2.9,0.2-4.4,0.6c-1.8-3.8-5.5-6.3-9.7-6.5c-1.3-2.4-3.1-4.4-5.3-5.8c1.2-1,2.8-1.6,4.5-1.6c1.8,0,3.6,0.7,4.9,2  c0.3,0.3,0.8,0.5,1.2,0.5c0.5,0,0.9-0.2,1.2-0.6c2.4-2.9,5.9-4.5,9.6-4.5c7,0,12.6,5.7,12.6,12.6c0,3-1.1,5.8-2.9,8  C80.9,30.8,76.8,29.1,72.2,29.1z M22.4,20.3c-0.3-0.9,0.1-1.8,1-2.2c0.8-0.3,1.8,0.1,2.2,1c0.3,0.9-0.1,1.8-1,2.2  c-0.2,0.1-0.4,0.1-0.6,0.1C23.2,21.3,22.6,20.9,22.4,20.3z M87.4,57.7c-0.3,0.5-0.8,0.8-1.4,0.8c-0.3,0-0.6-0.1-0.9-0.3  c-0.4-0.2-0.7-0.6-0.8-1.1c-0.1-0.4,0-0.9,0.2-1.3c0.5-0.8,1.6-1,2.3-0.5C87.7,55.9,87.9,56.9,87.4,57.7z M26.8,68.3  c0.1-0.9,0.9-1.6,1.8-1.5c0.9,0.1,1.6,0.9,1.6,1.8c-0.1,0.9-0.8,1.6-1.7,1.6c0,0-0.1,0-0.1,0C27.4,70,26.7,69.2,26.8,68.3z   M80.4,60.3C75.9,63.4,70,63.7,65.2,61c-0.7-0.4-1.6-0.2-2.1,0.3c-3.2,3.5-7.5,5.5-12.2,5.5c-3.5,0-6.8-1.1-9.6-3.2  c-0.6-0.4-1.4-0.4-2,0c-1.5,1.1-3.1,1.9-4.8,2.4c-0.4,0.1-0.8,0.4-1,0.8c-0.2,0.4-0.3,0.9-0.1,1.3c0.3,0.9,1.3,1.3,2.1,1.1  c0,0,0,0,0,0c1.7-0.5,3.3-1.3,4.8-2.2c3.2,2,6.9,3.1,10.6,3.1c3,0,6-0.7,8.7-2c-0.5,2.1-1.5,3.9-2.8,5.5c-2.5,0.5-4.7,2.1-5.9,4.3  c-1.6,0.6-3.4,1-5.2,1c-1.7,0-3.5-0.3-5.1-1c-0.4-0.2-0.9-0.1-1.4,0.1c-0.4,0.2-0.7,0.6-0.9,1.1c-1.2,4.6-5.3,7.8-10,7.8  c-5.7,0-10.3-4.6-10.3-10.3c0-3.3,1.6-6.3,4.2-8.3c0.5-0.1,1-0.4,1.2-0.9c0.4-0.8,0.1-1.8-0.8-2.2c-5.9-2.8-9.7-8.9-9.7-15.6  c0-6,3-11.5,8.1-14.7c0.4-0.3,0.7-0.7,0.8-1.1c0.1-0.5,0-1-0.3-1.3c-1-1.3-1.6-2.9-1.6-4.5c0-1.1,0.3-2.2,0.7-3.2  c0.4-0.8,0.1-1.8-0.8-2.2c-0.8-0.4-1.8,0-2.2,0.8c-0.7,1.4-1.1,3-1.1,4.6c0,1.7,0.5,3.5,1.3,5.1c-5.1,3.9-8.2,10-8.2,16.6  c0,7,3.5,13.5,9.2,17.3c-2.6,2.5-4.1,6-4.1,9.8c0,7.5,6.1,13.7,13.7,13.7c5.7,0,10.6-3.5,12.7-8.6c1.5,0.4,3.1,0.6,4.7,0.6  c1.5,0,2.9-0.2,4.3-0.5c0,0,0,0.1,0,0.1c0,4.6,3.8,8.4,8.4,8.4c4.6,0,8.4-3.8,8.4-8.4c0-3.8-2.5-7-6-8c1.5-2.4,2.4-5.2,2.6-8.2  c0.5-0.4,0.9-0.8,1.3-1.2c5.6,2.6,12.5,2.1,17.6-1.5c0.8-0.5,1-1.6,0.4-2.3C82.3,59.9,81.2,59.7,80.4,60.3z M63.4,81.9  c0,2.8-2.3,5-5,5c-2.8,0-5-2.3-5-5c0-2.8,2.3-5,5-5C61.2,76.9,63.4,79.2,63.4,81.9z M51.7,45.8v-8.4c0-4.2-3.4-7.6-7.6-7.6  s-7.6,3.4-7.6,7.6v8.4c0,4.2,3.4,7.6,7.6,7.6S51.7,50,51.7,45.8z M39.9,45.8v-8.4c0-2.3,1.9-4.2,4.2-4.2s4.2,1.9,4.2,4.2v8.4  c0,2.3-1.9,4.2-4.2,4.2S39.9,48.1,39.9,45.8z M61.2,52.8c0.3-0.3,0.5-0.7,0.5-1.2c0-0.9-0.7-1.7-1.7-1.7l-3.4,0  c-0.9,0-1.7-0.8-1.7-1.7c0-0.9,0.8-1.7,1.7-1.7c0,0,0,0,0,0l3.4,0c0.9,0,1.7-0.7,1.7-1.7c0-0.9-0.7-1.7-1.7-1.7l-3.4,0  c-0.9,0-1.7-0.8-1.7-1.7c0-0.9,0.8-1.7,1.7-1.7c0,0,0,0,0,0l3.4,0c2.8,0,5,2.3,5,5.1c0,1.3-0.5,2.4-1.3,3.4c0.8,0.9,1.3,2.1,1.3,3.4  c0,1.3-0.5,2.6-1.5,3.6c-1,0.9-2.2,1.4-3.5,1.4c0,0,0,0,0,0l-3.4,0c-0.9,0-1.7-0.8-1.7-1.7c0-0.9,0.8-1.7,1.7-1.7c0,0,0,0,0,0l3.4,0  C60.4,53.2,60.9,53.1,61.2,52.8z M76,71.8c-3.2,0-5.9,2.6-5.9,5.9c0,3.2,2.6,5.9,5.9,5.9c3.2,0,5.9-2.6,5.9-5.9  C81.9,74.5,79.3,71.8,76,71.8z M76,80.3c-1.4,0-2.5-1.1-2.5-2.5c0-1.4,1.1-2.5,2.5-2.5c1.4,0,2.5,1.1,2.5,2.5  C78.6,79.1,77.4,80.3,76,80.3z M14.7,19.8c2.8,0,5-2.3,5-5s-2.3-5-5-5s-5,2.3-5,5S11.9,19.8,14.7,19.8z M14.7,13  c0.9,0,1.7,0.8,1.7,1.7c0,0.9-0.8,1.7-1.7,1.7c-0.9,0-1.7-0.8-1.7-1.7C13,13.8,13.8,13,14.7,13z"/></svg>