<svg xmlns:dc="http://purl.org/dc/elements/1.1/" xmlns:cc="http://creativecommons.org/ns#" xmlns:rdf="http://www.w3.org/1999/02/22-rdf-syntax-ns#" xmlns:svg="http://www.w3.org/2000/svg" xmlns="http://www.w3.org/2000/svg" xmlns:sodipodi="http://sodipodi.sourceforge.net/DTD/sodipodi-0.dtd" xmlns:inkscape="http://www.inkscape.org/namespaces/inkscape" viewBox="0 0 16.933333 21.166666250000002" version="1.1" x="0px" y="0px"><g><path style="opacity:1;fill:#000000;fill-opacity:1;stroke:none;stroke-width:0.52916664;stroke-linecap:round;stroke-linejoin:round;stroke-miterlimit:4;stroke-dasharray:none;stroke-dashoffset:0;stroke-opacity:1" d="m 7.4059047,1.0586386 c -0.5817399,0 -1.05885,0.4765929 -1.05885,1.058333 0,0.388486 0.21507,0.7268189 0.52969,0.9110558 v 4.397664 c -0.005,0.0079 -0.0113,0.015309 -0.016499,0.023249 a 0.26460979,0.26460979 0 0 0 -0.00201,0.00209 l -1.873781,2.9026756 c -2e-4,2.65e-4 -3.201e-4,7.94e-4 -5.212e-4,10e-4 l -0.003,0.0041 a 0.26460979,0.26460979 0 0 0 -0.007,0.0098 l -1.8541486,2.920228 c -0.3592,0.565829 -0.31544,1.229782 0.003,1.727544 0.31855,0.497762 0.90505,0.843466 1.60611,0.845942 l 3.7310301,0.0124 c 0.004,1.4e-5 0.009,1.4e-5 0.013401,0 l 3.73104,-0.0124 c 0.70106,-0.0025 1.28755,-0.34818 1.6061,-0.845942 0.31855,-0.497762 0.36231,-1.161714 0.003,-1.727544 l -1.854151,-2.920238 a 0.26460979,0.26460979 0 0 0 -0.007,-0.0098 l -0.002,-0.0036 c -8.47e-4,-0.0012 -10e-4,-0.0021 -0.002,-0.0031 L 10.075542,7.4509901 a 0.26460979,0.26460979 0 0 0 -0.002,-0.00259 c -0.005,-0.0076 -0.0108,-0.0147 -0.016,-0.02222 V 3.0243744 c 0.310882,-0.18513 0.522482,-0.521664 0.522482,-0.907439 0,-0.58174 -0.47659,-1.058333 -1.0583303,-1.058333 z m 2.1239001,2.1166669 v 4.335136 a 0.26460979,0.26460979 0 0 0 0.0553,0.1617469 c 0.017399,0.02245 0.0341,0.04536 0.0496,0.06873 l 1.8748202,2.9052476 a 0.26460979,0.26460979 0 0 0 0.009,0.01344 c 0.002,0.0026 0.003,0.0043 0.004,0.0057 l 1.84537,2.906799 c 0.25219,0.397255 0.2176,0.815067 -0.003,1.159102 -0.22017,0.344038 -0.63275,0.600162 -1.1622,0.602031 l -3.7310403,0.0124 c -0.003,1.1e-5 -0.006,1.1e-5 -0.009,0 l -3.7310403,-0.0124 c -0.5294,-0.0019 -0.94203,-0.257993 -1.1622,-0.602031 -0.22017,-0.344035 -0.25477,-0.761847 -0.003,-1.159102 l 1.84846,-2.910933 5.213e-4,-0.001 a 0.26460979,0.26460979 0 0 0 0.01,-0.01395 l 1.8753398,-2.9057648 0.00201,-0.00209 c 0.0151,-0.022781 0.0312,-0.04528 0.0481,-0.06718 a 0.26460979,0.26460979 0 0 0 0.0548,-0.1612302 V 3.1758445 h 2.11719 c 0.00201,0 0.004,-5.027e-4 0.007,-5.159e-4 z M 6.6199046,9.2824253 5.6520048,10.781041 v 0.0021 l -0.004,0.0057 c 0,6.88e-4 0,0.0014 0,0.0021 -0.00201,0.004 -0.005,0.008 -0.008,0.01189 l -0.011901,0.01757 -1.8376101,2.894397 c -0.20133,0.317142 -0.1724599,0.600096 0.002,0.872815 0.17141,0.267851 0.49647,0.479005 0.94102,0.480592 l 3.7305299,0.01395 c 0.003,9e-6 0.005,9e-6 0.008,0 l 3.7305204,-0.01395 c 0.44461,-0.0016 0.768059,-0.212741 0.939479,-0.480592 0.17458,-0.272717 0.2034,-0.555673 0.002,-0.872815 l -1.836059,-2.896464 -0.002,-0.0021 c -0.006,-0.0088 -0.0132,-0.01622 -0.0191,-0.02532 0,-6.88e-4 0,-0.0014 0,-0.0021 L 10.976823,10.30874 C 9.7450631,10.26317 9.0352832,10.012919 8.4312431,9.7713067 7.8786532,9.5502683 7.415363,9.3466434 6.6199832,9.2824473 Z m 3.4049594,1.5580437 a 0.25926455,0.25926455 0 0 1 0.259421,0.259416 0.25926455,0.25926455 0 0 1 -0.259421,0.258899 0.25926455,0.25926455 0 0 1 -0.2594094,-0.258899 0.25926455,0.25926455 0 0 1 0.2594094,-0.259416 z m -1.2355793,0.612366 a 0.35304105,0.35304105 0 0 1 0.3529499,0.35295 0.35304105,0.35304105 0 0 1 -0.3529499,0.35295 0.35304105,0.35304105 0 0 1 -0.3529499,-0.35295 0.35304105,0.35304105 0 0 1 0.3529499,-0.35295 z m 0.8826299,0.882634 a 0.52956237,0.52956237 0 0 1 0.5296904,0.529682 0.52956237,0.52956237 0 0 1 -0.5296904,0.529167 0.52956237,0.52956237 0 0 1 -0.52968,-0.529167 0.52956237,0.52956237 0 0 1 0.52968,-0.529682 z"/></g><text x="0" y="31.933333" fill="#000000" font-size="5px" font-weight="bold" font-family="'Helvetica Neue', Helvetica, Arial-Unicode, Arial, Sans-serif">Created by Aficons</text><text x="0" y="36.933333000000005" fill="#000000" font-size="5px" font-weight="bold" font-family="'Helvetica Neue', Helvetica, Arial-Unicode, Arial, Sans-serif">from the Noun Project</text></svg>