<svg version="1.1" xmlns="http://www.w3.org/2000/svg" fill-rule="evenodd" clip-rule="evenodd" height="1024" width="1024" viewBox="0 0 1024 1024"><path d="M772.433455 348.939636c88.145455-5.515636 100.258909-12.567273 152.215272 37.061819 82.746182-39.109818 33.093818-179.397818-60.090182-149.783273 4.549818-65.594182-119.936-181.096727-211.118545-32.512 2.955636 1.082182 117.969455 40.925091 118.993455 145.233454z"></path><path d="M631.912727 514.292364c-22.516364 0-40.529455 8.005818-54.062545 23.575272-13.009455 15.511273-20.072727 37.015273-20.072727 64.197819h0.512c0 26.426182 6.493091 46.952727 20.014545 62.068363 13.533091 14.999273 31.104 22.958545 53.608727 22.958546 23.028364 0 41.157818-7.458909 53.143273-21.888 12.043636-15.115636 18.024727-36.200727 18.024727-64.232728s-5.981091-49.117091-18.024727-64.139636c-11.985455-15.034182-30.126545-22.539636-53.143273-22.539636z"></path><path d="M818.024727 405.038545l-99.712-3.514181c-36.561455-271.034182-413.288727-317.579636-493.44 45.067636l-39.051636 2.048c-205.370182 99.630545-124.706909 321.675636-32 354.199273v0.570182h668.706909c158.743273-41.634909 193.291636-313.204364-4.503273-398.37091zM453.131636 531.793455a88.203636 88.203636 0 0 0-54.097454-18.013091c-23.086545 0-42.123636 8.005818-56.622546 24.029091-14.557091 16.023273-22.062545 37.527273-22.062545 64.186181 0 26.426182 7.04 46.952727 20.526545 62.068364 14.045091 14.999273 32.058182 22.528 55.645091 22.528 19.560727 0 38.551273-6.551273 56.040728-19.549091v38.050909c-17.501091 10.589091-38.539636 15.522909-63.604364 15.522909-33.093818 0-59.624727-10.542545-79.639273-32.046545-20.014545-20.980364-30.010182-48.523636-30.010182-82.594909 0-37.632 11.019636-67.688727 32.570182-90.717091 21.492364-23.028364 51.048727-34.548364 87.144727-34.548364 21.026909 0 39.04 3.584 54.097455 11.008v40.075637zM713.076364 687.616c-21.038545 21.981091-48.546909 33.524364-83.665455 33.524364-34.059636 0-61.626182-10.565818-82.141091-32.046546-20.526545-21.434182-30.522182-50.024727-30.522182-85.154909v-0.384c0-38.155636 10.507636-67.700364 31.476364-89.762909 21.096727-22.062545 49.629091-32.558545 86.237091-32.558545 34.56 0 61.044364 10.554182 80.605091 31.592727 19.560727 21.073455 29.614545 50.141091 29.614545 87.133091 0 36.037818-10.577455 65.536-31.604363 87.656727z"></path></svg>