<?xml version="1.0" ?><svg id="Layer_1" style="enable-background:new 0 0 100 100;" version="1.1" viewBox="0 0 100 100" xml:space="preserve" xmlns="http://www.w3.org/2000/svg" xmlns:xlink="http://www.w3.org/1999/xlink"><path d="M81.7,29.6h-0.3c-0.4-12.8-10.8-23-23.5-23c-5.8,0-11.3,2.1-15.6,6c-2.2-0.9-4.6-1.4-7.1-1.4c-10.2,0-18.6,8.3-19,18.5  C9.9,30.7,5,36.3,5,43.1c0,7.4,6,13.5,13.3,13.5h63.4C89,56.6,95,50.5,95,43.1S89,29.6,81.7,29.6z M81.7,52.6H18.3  c-5.1,0-9.3-4.3-9.3-9.5s4.2-9.5,9.4-9.5c0.6,0,1.1-0.2,1.5-0.6c0.4-0.4,0.6-1,0.5-1.5l0-0.2c0-0.3,0-0.5,0-0.8  c0-8.4,6.7-15.2,15-15.2c2.3,0,4.5,0.5,6.6,1.6c0.8,0.4,1.7,0.2,2.3-0.4c3.7-3.7,8.6-5.8,13.8-5.8c10.8,0,19.5,8.9,19.5,19.8  c0,0.2,0,0.4,0,0.7l0,0.4c0,0.6,0.2,1.1,0.5,1.5c0.4,0.4,0.9,0.6,1.5,0.6h2.3c5.1,0,9.3,4.3,9.3,9.5S86.8,52.6,81.7,52.6z   M64.7,34.6L64.7,34.6c0-1.2-0.9-2-2.1-2l-6,0.2c-0.3-0.9-0.8-1.7-1.4-2.4l3.2-5.1c0.2-0.4,0.3-0.8,0.3-1.1c0-0.1,0-0.1,0-0.2  c0-0.1,0-0.1,0-0.2c0-0.1,0-0.2-0.1-0.3c0,0,0-0.1,0-0.1c0,0,0-0.1-0.1-0.2c0-0.1-0.1-0.1-0.1-0.2c0,0,0,0,0,0  c-0.2-0.2-0.3-0.4-0.5-0.5c-2.4-1.5-5.1-2.3-7.8-2.3s-5.5,0.8-7.8,2.3c-0.1,0.1-0.2,0.2-0.3,0.2c0,0-0.1,0.1-0.1,0.1  c0,0.1-0.1,0.1-0.1,0.2c-0.1,0.1-0.1,0.1-0.1,0.2c0,0,0,0.1-0.1,0.1c0,0.1-0.1,0.2-0.1,0.3c0,0,0,0.1,0,0.1c0,0.1,0,0.1,0,0.2  c0,0.1,0,0.1,0,0.2c0,0,0,0.1,0,0.1c0,0.1,0,0.2,0,0.2c0,0,0,0.1,0,0.1c0,0.1,0,0.2,0.1,0.3c0,0,0,0,0,0c0,0.1,0.1,0.2,0.2,0.3  l3.2,5.1c-0.6,0.7-1.1,1.5-1.4,2.4l-6-0.2c-1.1,0-2,0.8-2.1,1.9c0,0,0,0,0,0c0,0,0,0,0,0c0,0.1,0,0.3,0,0.4c0,5.5,3.1,10.5,8,13.1h0  c0.1,0,0.1,0,0.2,0.1c0.1,0,0.2,0.1,0.3,0.1c0.2,0,0.3,0,0.5,0c0.2,0,0.4,0,0.5-0.1c0,0,0.1,0,0.1-0.1c0.1,0,0.2-0.1,0.4-0.1  c0,0,0.1-0.1,0.1-0.1c0.1-0.1,0.2-0.1,0.3-0.2c0,0,0.1-0.1,0.1-0.1c0.1-0.1,0.2-0.2,0.2-0.3l2.7-5.3C49.1,42,49.6,42,50,42  s0.9,0,1.3-0.1l2.7,5.3v0c0.1,0.2,0.2,0.3,0.3,0.4c0,0,0,0,0,0c0.1,0.1,0.2,0.2,0.3,0.2c0,0,0.1,0.1,0.1,0.1c0.1,0,0.2,0.1,0.3,0.1  c0.1,0,0.1,0.1,0.2,0.1c0.2,0.1,0.4,0.1,0.5,0.1c0.2,0,0.3,0,0.5,0c0,0,0.1,0,0.1,0c0.1,0,0.2-0.1,0.3-0.1c0,0,0,0,0,0  c2.5-1.3,4.5-3.2,5.8-5.4c1.4-2.3,2.1-4.9,2.1-7.6C64.7,34.9,64.7,34.7,64.7,34.6L64.7,34.6z M43.4,43.4c-2.1-1.7-3.6-4.1-4-6.8  l3.8,0.1c0.3,1.3,1,2.4,1.9,3.3L43.4,43.4z M50,38c-1.7,0-3-1.4-3-3c0-1.7,1.3-3,3-3s3,1.3,3,3C53,36.7,51.7,38,50,38z M51.9,28.3  C51.3,28.1,50.7,28,50,28s-1.3,0.1-1.9,0.3l-2-3.2c2.5-1,5.3-1,7.8,0L51.9,28.3z M56.6,43.4l-1.7-3.4c0.9-0.9,1.6-2,1.9-3.3l3.8-0.1  C60.2,39.4,58.7,41.8,56.6,43.4z M27.6,65.6l-6,13.8c-0.3,0.8-1.1,1.2-1.8,1.2c-0.3,0-0.5-0.1-0.8-0.2c-1-0.4-1.5-1.6-1-2.6l6-13.8  c0.4-1,1.6-1.5,2.6-1C27.6,63.4,28,64.6,27.6,65.6z M17.7,88.5l-1.6,3.7c-0.3,0.8-1.1,1.2-1.8,1.2c-0.3,0-0.5-0.1-0.8-0.2  c-1-0.4-1.5-1.6-1-2.6l1.6-3.7c0.4-1,1.6-1.5,2.6-1C17.6,86.3,18.1,87.5,17.7,88.5z M39.6,65.6l-6,13.8c-0.3,0.8-1.1,1.2-1.8,1.2  c-0.3,0-0.5-0.1-0.8-0.2c-1-0.4-1.5-1.6-1-2.6l6-13.8c0.4-1,1.6-1.5,2.6-1C39.6,63.4,40,64.6,39.6,65.6z M29.7,88.5l-1.6,3.7  c-0.3,0.8-1.1,1.2-1.8,1.2c-0.3,0-0.5-0.1-0.8-0.2c-1-0.4-1.5-1.6-1-2.6l1.6-3.7c0.4-1,1.6-1.5,2.6-1C29.6,86.3,30.1,87.5,29.7,88.5  z M51.6,65.6l-6,13.8c-0.3,0.8-1.1,1.2-1.8,1.2c-0.3,0-0.5-0.1-0.8-0.2c-1-0.4-1.5-1.6-1-2.6l6-13.8c0.4-1,1.6-1.5,2.6-1  C51.6,63.4,52,64.6,51.6,65.6z M41.7,88.5l-1.6,3.7c-0.3,0.8-1.1,1.2-1.8,1.2c-0.3,0-0.5-0.1-0.8-0.2c-1-0.4-1.5-1.6-1-2.6l1.6-3.7  c0.4-1,1.6-1.5,2.6-1C41.6,86.3,42.1,87.5,41.7,88.5z M63.6,65.6l-6,13.8c-0.3,0.8-1.1,1.2-1.8,1.2c-0.3,0-0.5-0.1-0.8-0.2  c-1-0.4-1.5-1.6-1-2.6l6-13.8c0.4-1,1.6-1.5,2.6-1C63.6,63.4,64,64.6,63.6,65.6z M53.7,88.5l-1.6,3.7c-0.3,0.8-1.1,1.2-1.8,1.2  c-0.3,0-0.5-0.1-0.8-0.2c-1-0.4-1.5-1.6-1-2.6l1.6-3.7c0.4-1,1.6-1.5,2.6-1C53.6,86.3,54.1,87.5,53.7,88.5z M75.6,65.6l-6,13.8  c-0.3,0.8-1.1,1.2-1.8,1.2c-0.3,0-0.5-0.1-0.8-0.2c-1-0.4-1.5-1.6-1-2.6l6-13.8c0.4-1,1.6-1.5,2.6-1C75.6,63.4,76,64.6,75.6,65.6z   M65.7,88.5l-1.6,3.7c-0.3,0.8-1.1,1.2-1.8,1.2c-0.3,0-0.5-0.1-0.8-0.2c-1-0.4-1.5-1.6-1-2.6l1.6-3.7c0.4-1,1.6-1.5,2.6-1  C65.6,86.3,66.1,87.5,65.7,88.5z"/></svg>